<mxfile host="Electron" agent="Mozilla/5.0 (Windows NT 10.0; Win64; x64) AppleWebKit/537.36 (KHTML, like Gecko) draw.io/24.7.17 Chrome/128.0.6613.36 Electron/32.0.1 Safari/537.36" version="24.7.17">
  <diagram name="Page-1" id="MvPt9PEE8yK7YBVi3xdn">
    <mxGraphModel dx="1034" dy="1688" grid="1" gridSize="10" guides="1" tooltips="1" connect="1" arrows="1" fold="1" page="1" pageScale="1" pageWidth="827" pageHeight="1169" math="0" shadow="0">
      <root>
        <mxCell id="0" />
        <mxCell id="1" parent="0" />
        <mxCell id="98a_QKXKA-WMX3MC06x8-1" value="&lt;div&gt;&lt;br&gt;&lt;/div&gt;" style="text;html=1;align=center;verticalAlign=middle;resizable=0;points=[];autosize=1;strokeColor=none;fillColor=none;" parent="1" vertex="1">
          <mxGeometry x="160" y="98" width="20" height="30" as="geometry" />
        </mxCell>
        <mxCell id="XhzjX-qSLedwMCP6VEhi-1" value="&lt;span style=&quot;text-wrap: nowrap;&quot;&gt;Réception des plats à servir depuis la cuisine&lt;/span&gt;" style="rounded=1;whiteSpace=wrap;html=1;fillColor=#A9C4EB;" vertex="1" parent="1">
          <mxGeometry x="460" y="-90" width="260" height="30" as="geometry" />
        </mxCell>
        <mxCell id="XhzjX-qSLedwMCP6VEhi-2" value="&lt;span style=&quot;text-wrap: nowrap;&quot;&gt;Service des plats aux clients dans le carré&lt;/span&gt;" style="rounded=1;whiteSpace=wrap;html=1;fillColor=#A9C4EB;" vertex="1" parent="1">
          <mxGeometry x="465" y="-30" width="250" height="20" as="geometry" />
        </mxCell>
        <mxCell id="XhzjX-qSLedwMCP6VEhi-3" value="&lt;span style=&quot;text-wrap: nowrap;&quot;&gt;Les clients ont-ils terminé leur plat ?&lt;/span&gt;" style="rounded=1;whiteSpace=wrap;html=1;fillColor=#A9C4EB;" vertex="1" parent="1">
          <mxGeometry x="460" y="20" width="250" height="20" as="geometry" />
        </mxCell>
        <mxCell id="XhzjX-qSLedwMCP6VEhi-4" value="" style="rhombus;whiteSpace=wrap;html=1;" vertex="1" parent="1">
          <mxGeometry x="567.5" y="80" width="35" height="30" as="geometry" />
        </mxCell>
        <mxCell id="XhzjX-qSLedwMCP6VEhi-5" value="Ramassage de la vaisselle et transport au comptoir des objets sales" style="rounded=1;whiteSpace=wrap;html=1;fillColor=#A9C4EB;" vertex="1" parent="1">
          <mxGeometry x="430" y="120" width="120" height="60" as="geometry" />
        </mxCell>
        <mxCell id="XhzjX-qSLedwMCP6VEhi-6" value="Surveillance discrète des besoins des clients" style="rounded=1;whiteSpace=wrap;html=1;fillColor=#A9C4EB;" vertex="1" parent="1">
          <mxGeometry x="620" y="120" width="120" height="60" as="geometry" />
        </mxCell>
        <mxCell id="XhzjX-qSLedwMCP6VEhi-7" value="&lt;span style=&quot;text-wrap: nowrap;&quot;&gt;Les autres carrés ont-ils besoin d’aide ?&lt;/span&gt;" style="rounded=1;whiteSpace=wrap;html=1;fillColor=#A9C4EB;" vertex="1" parent="1">
          <mxGeometry x="390" y="210" width="230" height="20" as="geometry" />
        </mxCell>
        <mxCell id="XhzjX-qSLedwMCP6VEhi-8" value="" style="rhombus;whiteSpace=wrap;html=1;" vertex="1" parent="1">
          <mxGeometry x="580" y="270" width="40" height="32" as="geometry" />
        </mxCell>
        <mxCell id="XhzjX-qSLedwMCP6VEhi-9" value="Aider dans un autre carré temporairement" style="rounded=1;whiteSpace=wrap;html=1;fillColor=#A9C4EB;" vertex="1" parent="1">
          <mxGeometry x="430" y="330" width="120" height="40" as="geometry" />
        </mxCell>
        <mxCell id="XhzjX-qSLedwMCP6VEhi-10" value="Retour dans son carré pour rester disponible" style="rounded=1;whiteSpace=wrap;html=1;fillColor=#A9C4EB;" vertex="1" parent="1">
          <mxGeometry x="650" y="330" width="120" height="40" as="geometry" />
        </mxCell>
        <mxCell id="XhzjX-qSLedwMCP6VEhi-11" value="" style="ellipse;whiteSpace=wrap;html=1;aspect=fixed;fillColor=#000000;" vertex="1" parent="1">
          <mxGeometry x="580" y="-150" width="22" height="22" as="geometry" />
        </mxCell>
        <mxCell id="XhzjX-qSLedwMCP6VEhi-12" value="" style="endArrow=classic;html=1;rounded=0;entryX=0.5;entryY=0;entryDx=0;entryDy=0;" edge="1" parent="1" target="XhzjX-qSLedwMCP6VEhi-1">
          <mxGeometry width="50" height="50" relative="1" as="geometry">
            <mxPoint x="590" y="-130" as="sourcePoint" />
            <mxPoint x="640" y="-180" as="targetPoint" />
          </mxGeometry>
        </mxCell>
        <mxCell id="XhzjX-qSLedwMCP6VEhi-13" value="" style="endArrow=classic;html=1;rounded=0;exitX=0.5;exitY=1;exitDx=0;exitDy=0;entryX=0.5;entryY=0;entryDx=0;entryDy=0;" edge="1" parent="1" source="XhzjX-qSLedwMCP6VEhi-1" target="XhzjX-qSLedwMCP6VEhi-2">
          <mxGeometry width="50" height="50" relative="1" as="geometry">
            <mxPoint x="600" y="-50" as="sourcePoint" />
            <mxPoint x="650" y="-100" as="targetPoint" />
          </mxGeometry>
        </mxCell>
        <mxCell id="XhzjX-qSLedwMCP6VEhi-14" value="" style="endArrow=classic;html=1;rounded=0;entryX=0.528;entryY=0.225;entryDx=0;entryDy=0;entryPerimeter=0;" edge="1" parent="1" target="XhzjX-qSLedwMCP6VEhi-3">
          <mxGeometry width="50" height="50" relative="1" as="geometry">
            <mxPoint x="590" y="-10" as="sourcePoint" />
            <mxPoint x="640" y="-60" as="targetPoint" />
          </mxGeometry>
        </mxCell>
        <mxCell id="XhzjX-qSLedwMCP6VEhi-15" value="" style="endArrow=classic;html=1;rounded=0;exitX=0.5;exitY=1;exitDx=0;exitDy=0;entryX=0.5;entryY=0;entryDx=0;entryDy=0;" edge="1" parent="1" source="XhzjX-qSLedwMCP6VEhi-3" target="XhzjX-qSLedwMCP6VEhi-4">
          <mxGeometry width="50" height="50" relative="1" as="geometry">
            <mxPoint x="590" y="60" as="sourcePoint" />
            <mxPoint x="640" y="10" as="targetPoint" />
          </mxGeometry>
        </mxCell>
        <mxCell id="XhzjX-qSLedwMCP6VEhi-16" value="" style="endArrow=none;html=1;rounded=0;exitX=1;exitY=0.5;exitDx=0;exitDy=0;" edge="1" parent="1" source="XhzjX-qSLedwMCP6VEhi-4">
          <mxGeometry width="50" height="50" relative="1" as="geometry">
            <mxPoint x="620" y="90" as="sourcePoint" />
            <mxPoint x="680" y="95" as="targetPoint" />
          </mxGeometry>
        </mxCell>
        <mxCell id="XhzjX-qSLedwMCP6VEhi-17" value="" style="endArrow=none;html=1;rounded=0;entryX=0;entryY=0.5;entryDx=0;entryDy=0;" edge="1" parent="1" target="XhzjX-qSLedwMCP6VEhi-4">
          <mxGeometry width="50" height="50" relative="1" as="geometry">
            <mxPoint x="490" y="95" as="sourcePoint" />
            <mxPoint x="530" y="80" as="targetPoint" />
          </mxGeometry>
        </mxCell>
        <mxCell id="XhzjX-qSLedwMCP6VEhi-18" value="" style="endArrow=classic;html=1;rounded=0;entryX=0.5;entryY=0;entryDx=0;entryDy=0;" edge="1" parent="1" target="XhzjX-qSLedwMCP6VEhi-6">
          <mxGeometry width="50" height="50" relative="1" as="geometry">
            <mxPoint x="680" y="90" as="sourcePoint" />
            <mxPoint x="760" y="40" as="targetPoint" />
          </mxGeometry>
        </mxCell>
        <mxCell id="XhzjX-qSLedwMCP6VEhi-19" value="" style="endArrow=classic;html=1;rounded=0;entryX=0.5;entryY=0;entryDx=0;entryDy=0;" edge="1" parent="1" target="XhzjX-qSLedwMCP6VEhi-5">
          <mxGeometry width="50" height="50" relative="1" as="geometry">
            <mxPoint x="490" y="90" as="sourcePoint" />
            <mxPoint x="540" y="40" as="targetPoint" />
          </mxGeometry>
        </mxCell>
        <mxCell id="XhzjX-qSLedwMCP6VEhi-20" value="" style="endArrow=classic;html=1;rounded=0;entryX=0.433;entryY=0.125;entryDx=0;entryDy=0;entryPerimeter=0;" edge="1" parent="1" target="XhzjX-qSLedwMCP6VEhi-7">
          <mxGeometry width="50" height="50" relative="1" as="geometry">
            <mxPoint x="490" y="180" as="sourcePoint" />
            <mxPoint x="540" y="130" as="targetPoint" />
          </mxGeometry>
        </mxCell>
        <mxCell id="XhzjX-qSLedwMCP6VEhi-21" value="" style="endArrow=classic;html=1;rounded=0;entryX=0.5;entryY=0;entryDx=0;entryDy=0;" edge="1" parent="1" target="XhzjX-qSLedwMCP6VEhi-8">
          <mxGeometry width="50" height="50" relative="1" as="geometry">
            <mxPoint x="600" y="230" as="sourcePoint" />
            <mxPoint x="650" y="180" as="targetPoint" />
          </mxGeometry>
        </mxCell>
        <mxCell id="XhzjX-qSLedwMCP6VEhi-22" value="" style="endArrow=none;html=1;rounded=0;exitX=1;exitY=0.5;exitDx=0;exitDy=0;" edge="1" parent="1" source="XhzjX-qSLedwMCP6VEhi-8">
          <mxGeometry width="50" height="50" relative="1" as="geometry">
            <mxPoint x="650" y="280" as="sourcePoint" />
            <mxPoint x="690" y="286" as="targetPoint" />
          </mxGeometry>
        </mxCell>
        <mxCell id="XhzjX-qSLedwMCP6VEhi-23" value="" style="endArrow=none;html=1;rounded=0;entryX=0;entryY=0.5;entryDx=0;entryDy=0;" edge="1" parent="1" target="XhzjX-qSLedwMCP6VEhi-8">
          <mxGeometry width="50" height="50" relative="1" as="geometry">
            <mxPoint x="490" y="286" as="sourcePoint" />
            <mxPoint x="450" y="270" as="targetPoint" />
          </mxGeometry>
        </mxCell>
        <mxCell id="XhzjX-qSLedwMCP6VEhi-24" value="" style="endArrow=classic;html=1;rounded=0;entryX=0.5;entryY=0;entryDx=0;entryDy=0;" edge="1" parent="1" target="XhzjX-qSLedwMCP6VEhi-9">
          <mxGeometry width="50" height="50" relative="1" as="geometry">
            <mxPoint x="490" y="280" as="sourcePoint" />
            <mxPoint x="540" y="240" as="targetPoint" />
          </mxGeometry>
        </mxCell>
        <mxCell id="XhzjX-qSLedwMCP6VEhi-25" value="" style="endArrow=classic;html=1;rounded=0;entryX=0.342;entryY=-0.05;entryDx=0;entryDy=0;entryPerimeter=0;" edge="1" parent="1" target="XhzjX-qSLedwMCP6VEhi-10">
          <mxGeometry width="50" height="50" relative="1" as="geometry">
            <mxPoint x="691" y="280" as="sourcePoint" />
            <mxPoint x="740" y="240" as="targetPoint" />
          </mxGeometry>
        </mxCell>
        <mxCell id="XhzjX-qSLedwMCP6VEhi-26" value="" style="endArrow=classic;html=1;rounded=0;" edge="1" parent="1">
          <mxGeometry width="50" height="50" relative="1" as="geometry">
            <mxPoint x="690" y="370" as="sourcePoint" />
            <mxPoint x="690" y="410" as="targetPoint" />
          </mxGeometry>
        </mxCell>
        <mxCell id="XhzjX-qSLedwMCP6VEhi-27" value="" style="ellipse;html=1;shape=endState;fillColor=#000000;strokeColor=#ff0000;" vertex="1" parent="1">
          <mxGeometry x="680" y="410" width="20" height="20" as="geometry" />
        </mxCell>
        <mxCell id="XhzjX-qSLedwMCP6VEhi-28" value="Oui" style="text;html=1;align=center;verticalAlign=middle;resizable=0;points=[];autosize=1;strokeColor=none;fillColor=none;" vertex="1" parent="1">
          <mxGeometry x="500" y="68" width="40" height="30" as="geometry" />
        </mxCell>
        <mxCell id="XhzjX-qSLedwMCP6VEhi-29" value="Non" style="text;html=1;align=center;verticalAlign=middle;resizable=0;points=[];autosize=1;strokeColor=none;fillColor=none;" vertex="1" parent="1">
          <mxGeometry x="605" y="68" width="50" height="30" as="geometry" />
        </mxCell>
        <mxCell id="XhzjX-qSLedwMCP6VEhi-30" value="Oui" style="text;html=1;align=center;verticalAlign=middle;resizable=0;points=[];autosize=1;strokeColor=none;fillColor=none;" vertex="1" parent="1">
          <mxGeometry x="500" y="258" width="40" height="30" as="geometry" />
        </mxCell>
        <mxCell id="XhzjX-qSLedwMCP6VEhi-31" value="Non" style="text;html=1;align=center;verticalAlign=middle;resizable=0;points=[];autosize=1;strokeColor=none;fillColor=none;" vertex="1" parent="1">
          <mxGeometry x="625" y="258" width="50" height="30" as="geometry" />
        </mxCell>
      </root>
    </mxGraphModel>
  </diagram>
</mxfile>
